<mxfile host="Electron" modified="2024-03-07T12:28:52.088Z" agent="Mozilla/5.0 (Windows NT 10.0; Win64; x64) AppleWebKit/537.36 (KHTML, like Gecko) draw.io/23.1.5 Chrome/120.0.6099.109 Electron/28.1.0 Safari/537.36" etag="7Cx7AIkym1fuPzALHd1v" version="23.1.5" type="device">
  <diagram id="LddZ11oQy6wAxaFKRNwA" name="Page-1">
    <mxGraphModel dx="3354" dy="2044" grid="1" gridSize="10" guides="1" tooltips="1" connect="1" arrows="1" fold="1" page="1" pageScale="1" pageWidth="1920" pageHeight="1200" math="0" shadow="0">
      <root>
        <mxCell id="0" />
        <mxCell id="1" parent="0" />
        <mxCell id="uO771rqne8T0ETS6UlEL-33" value="" style="rounded=0;whiteSpace=wrap;html=1;fontSize=25;fillColor=#f5f5f5;fontColor=#333333;strokeColor=#666666;direction=east;strokeWidth=2;fontStyle=1" parent="1" vertex="1">
          <mxGeometry x="-170" y="-20" width="1500" height="870" as="geometry" />
        </mxCell>
        <mxCell id="AlD_Mvl5imv0q0pneEnk-150" value="" style="rounded=0;whiteSpace=wrap;html=1;strokeWidth=2;fontStyle=1" parent="1" vertex="1">
          <mxGeometry x="-130" y="500" width="1420" height="312.75" as="geometry" />
        </mxCell>
        <mxCell id="uO771rqne8T0ETS6UlEL-29" value="" style="rounded=0;whiteSpace=wrap;html=1;strokeWidth=2;fontStyle=1" parent="1" vertex="1">
          <mxGeometry x="-130" y="40" width="1420" height="260" as="geometry" />
        </mxCell>
        <mxCell id="uO771rqne8T0ETS6UlEL-28" value="" style="rounded=0;whiteSpace=wrap;html=1;strokeWidth=2;fontStyle=1" parent="1" vertex="1">
          <mxGeometry x="-130" y="300" width="1420" height="200" as="geometry" />
        </mxCell>
        <mxCell id="AlD_Mvl5imv0q0pneEnk-194" style="edgeStyle=orthogonalEdgeStyle;rounded=0;orthogonalLoop=1;jettySize=auto;html=1;exitX=0.5;exitY=1;exitDx=0;exitDy=0;entryX=0.5;entryY=0;entryDx=0;entryDy=0;strokeColor=#00CC00;strokeWidth=2;fontStyle=1;" parent="1" source="uO771rqne8T0ETS6UlEL-1" target="uO771rqne8T0ETS6UlEL-5" edge="1">
          <mxGeometry relative="1" as="geometry" />
        </mxCell>
        <mxCell id="uO771rqne8T0ETS6UlEL-1" value="RECEIVE SIGNED APPLICATION FORM WITH DOCUMENTS" style="rounded=0;whiteSpace=wrap;html=1;strokeWidth=2;fontStyle=1" parent="1" vertex="1">
          <mxGeometry x="120" y="60" width="120" height="60" as="geometry" />
        </mxCell>
        <mxCell id="uO771rqne8T0ETS6UlEL-22" style="edgeStyle=orthogonalEdgeStyle;rounded=0;orthogonalLoop=1;jettySize=auto;html=1;exitX=1;exitY=0.5;exitDx=0;exitDy=0;strokeColor=#00CC00;strokeWidth=2;fontStyle=1" parent="1" source="uO771rqne8T0ETS6UlEL-2" target="AlD_Mvl5imv0q0pneEnk-180" edge="1">
          <mxGeometry relative="1" as="geometry">
            <mxPoint x="940" y="100" as="targetPoint" />
          </mxGeometry>
        </mxCell>
        <mxCell id="uO771rqne8T0ETS6UlEL-2" value="SCAN PHOTOCOPY OF SUPPORTING DOCUMENTS" style="rounded=0;whiteSpace=wrap;html=1;strokeWidth=2;fontStyle=1" parent="1" vertex="1">
          <mxGeometry x="790" y="61" width="100" height="60" as="geometry" />
        </mxCell>
        <mxCell id="uO771rqne8T0ETS6UlEL-20" style="edgeStyle=orthogonalEdgeStyle;rounded=0;orthogonalLoop=1;jettySize=auto;html=1;exitX=1;exitY=0.75;exitDx=0;exitDy=0;strokeColor=#00CC00;strokeWidth=2;fontStyle=1;startArrow=classic;startFill=1;" parent="1" source="uO771rqne8T0ETS6UlEL-3" target="uO771rqne8T0ETS6UlEL-12" edge="1">
          <mxGeometry relative="1" as="geometry" />
        </mxCell>
        <mxCell id="AlD_Mvl5imv0q0pneEnk-179" style="edgeStyle=orthogonalEdgeStyle;rounded=0;orthogonalLoop=1;jettySize=auto;html=1;exitX=1;exitY=0.5;exitDx=0;exitDy=0;entryX=0;entryY=0.5;entryDx=0;entryDy=0;strokeColor=#00CC00;strokeWidth=2;fontStyle=1;" parent="1" source="uO771rqne8T0ETS6UlEL-3" target="uO771rqne8T0ETS6UlEL-2" edge="1">
          <mxGeometry relative="1" as="geometry" />
        </mxCell>
        <mxCell id="uO771rqne8T0ETS6UlEL-3" value="DIGITISE APPLICATION FORM DETAILS &amp;amp; UPLOAD TO SYSTEM" style="rounded=0;whiteSpace=wrap;html=1;strokeWidth=2;fontStyle=1" parent="1" vertex="1">
          <mxGeometry x="415" y="60" width="150" height="62" as="geometry" />
        </mxCell>
        <mxCell id="uO771rqne8T0ETS6UlEL-16" style="edgeStyle=orthogonalEdgeStyle;rounded=0;orthogonalLoop=1;jettySize=auto;html=1;exitX=0.5;exitY=1;exitDx=0;exitDy=0;strokeColor=#00CC00;strokeWidth=2;fontStyle=1" parent="1" source="uO771rqne8T0ETS6UlEL-4" target="uO771rqne8T0ETS6UlEL-7" edge="1">
          <mxGeometry relative="1" as="geometry" />
        </mxCell>
        <mxCell id="AlD_Mvl5imv0q0pneEnk-177" style="edgeStyle=orthogonalEdgeStyle;rounded=0;orthogonalLoop=1;jettySize=auto;html=1;exitX=1;exitY=0.5;exitDx=0;exitDy=0;entryX=0.25;entryY=0;entryDx=0;entryDy=0;strokeColor=#FF2617;strokeWidth=2;fontStyle=1;" parent="1" source="uO771rqne8T0ETS6UlEL-4" target="uO771rqne8T0ETS6UlEL-6" edge="1">
          <mxGeometry relative="1" as="geometry" />
        </mxCell>
        <mxCell id="uO771rqne8T0ETS6UlEL-4" value="IF &lt;br&gt;RID &lt;br&gt;EXISTS" style="rounded=0;whiteSpace=wrap;html=1;strokeWidth=2;fontStyle=1;shape=rhombus;perimeter=rhombusPerimeter;" parent="1" vertex="1">
          <mxGeometry x="292.5" y="164" width="85" height="66" as="geometry" />
        </mxCell>
        <mxCell id="AlD_Mvl5imv0q0pneEnk-176" style="edgeStyle=orthogonalEdgeStyle;rounded=0;orthogonalLoop=1;jettySize=auto;html=1;exitX=1;exitY=0.5;exitDx=0;exitDy=0;strokeColor=#00CC00;strokeWidth=2;fontStyle=1;" parent="1" source="uO771rqne8T0ETS6UlEL-5" target="uO771rqne8T0ETS6UlEL-4" edge="1">
          <mxGeometry relative="1" as="geometry" />
        </mxCell>
        <mxCell id="uO771rqne8T0ETS6UlEL-5" value="EVALUATE APPLICATION FORM FOR COMPLETENESS" style="rounded=0;whiteSpace=wrap;html=1;strokeWidth=2;fontStyle=1" parent="1" vertex="1">
          <mxGeometry x="125" y="167" width="110" height="60" as="geometry" />
        </mxCell>
        <mxCell id="uO771rqne8T0ETS6UlEL-18" style="edgeStyle=orthogonalEdgeStyle;rounded=0;orthogonalLoop=1;jettySize=auto;html=1;exitX=0.5;exitY=0;exitDx=0;exitDy=0;entryX=0.5;entryY=1;entryDx=0;entryDy=0;strokeColor=#00CC00;strokeWidth=2;fontStyle=1" parent="1" source="uO771rqne8T0ETS6UlEL-6" target="uO771rqne8T0ETS6UlEL-3" edge="1">
          <mxGeometry relative="1" as="geometry" />
        </mxCell>
        <mxCell id="uO771rqne8T0ETS6UlEL-6" value="GENERATE NEW RID FOR THE APPLICANT" style="rounded=0;whiteSpace=wrap;html=1;strokeWidth=2;fontStyle=1" parent="1" vertex="1">
          <mxGeometry x="430" y="586" width="120" height="60" as="geometry" />
        </mxCell>
        <mxCell id="avhwtHMAC_y1t0GH2TWF-4" style="edgeStyle=orthogonalEdgeStyle;rounded=0;orthogonalLoop=1;jettySize=auto;html=1;exitX=0.5;exitY=1;exitDx=0;exitDy=0;entryX=0;entryY=0.5;entryDx=0;entryDy=0;entryPerimeter=0;strokeColor=#FF0000;strokeWidth=2;fontStyle=1;" parent="1" source="uO771rqne8T0ETS6UlEL-7" target="avhwtHMAC_y1t0GH2TWF-3" edge="1">
          <mxGeometry relative="1" as="geometry" />
        </mxCell>
        <mxCell id="AlD_Mvl5imv0q0pneEnk-196" style="edgeStyle=orthogonalEdgeStyle;rounded=0;orthogonalLoop=1;jettySize=auto;html=1;exitX=1;exitY=0.5;exitDx=0;exitDy=0;entryX=0;entryY=0.5;entryDx=0;entryDy=0;strokeColor=#00CC00;strokeWidth=2;fontStyle=1;jumpStyle=arc;jumpSize=11;" parent="1" source="uO771rqne8T0ETS6UlEL-7" target="uO771rqne8T0ETS6UlEL-3" edge="1">
          <mxGeometry relative="1" as="geometry">
            <Array as="points">
              <mxPoint x="400" y="695" />
              <mxPoint x="400" y="91" />
            </Array>
          </mxGeometry>
        </mxCell>
        <mxCell id="uO771rqne8T0ETS6UlEL-7" value="IF &lt;br&gt;RID &amp;amp; &lt;br&gt;APPLICANT&lt;br&gt;&amp;nbsp;DETAILS &lt;br&gt;MATCHS" style="rounded=0;whiteSpace=wrap;html=1;strokeWidth=2;fontStyle=1;shape=rhombus;perimeter=rhombusPerimeter;" parent="1" vertex="1">
          <mxGeometry x="276.25" y="640" width="117.5" height="110" as="geometry" />
        </mxCell>
        <mxCell id="AlD_Mvl5imv0q0pneEnk-204" style="edgeStyle=orthogonalEdgeStyle;rounded=0;orthogonalLoop=1;jettySize=auto;html=1;exitX=1;exitY=0.5;exitDx=0;exitDy=0;strokeColor=#00CC00;strokeWidth=2;fontStyle=1;" parent="1" source="uO771rqne8T0ETS6UlEL-8" target="AlD_Mvl5imv0q0pneEnk-200" edge="1">
          <mxGeometry relative="1" as="geometry">
            <Array as="points">
              <mxPoint x="1230" y="107" />
            </Array>
          </mxGeometry>
        </mxCell>
        <mxCell id="uO771rqne8T0ETS6UlEL-8" value="PRINTS ACKNOWLEDG-EMENT&amp;nbsp;&lt;br&gt;WITH RID FOR APPOINTMENT BOOKING" style="rounded=0;whiteSpace=wrap;html=1;strokeWidth=2;fontStyle=1" parent="1" vertex="1">
          <mxGeometry x="1120" y="60" width="100" height="94.5" as="geometry" />
        </mxCell>
        <mxCell id="AlD_Mvl5imv0q0pneEnk-189" value="RESET COUNTER" style="edgeStyle=orthogonalEdgeStyle;rounded=0;orthogonalLoop=1;jettySize=auto;html=1;exitX=0.995;exitY=0.413;exitDx=0;exitDy=0;exitPerimeter=0;strokeColor=#00CC00;strokeWidth=2;fontStyle=1;startArrow=classic;startFill=1;entryX=0.5;entryY=1;entryDx=0;entryDy=0;endArrow=none;endFill=0;" parent="1" source="uO771rqne8T0ETS6UlEL-12" target="AlD_Mvl5imv0q0pneEnk-185" edge="1">
          <mxGeometry x="-0.4199" relative="1" as="geometry">
            <mxPoint x="880" y="400" as="targetPoint" />
            <Array as="points">
              <mxPoint x="830" y="709" />
            </Array>
            <mxPoint as="offset" />
          </mxGeometry>
        </mxCell>
        <mxCell id="AlD_Mvl5imv0q0pneEnk-193" style="edgeStyle=orthogonalEdgeStyle;rounded=0;orthogonalLoop=1;jettySize=auto;html=1;exitX=1;exitY=0;exitDx=0;exitDy=86.25000000000001;exitPerimeter=0;entryX=0.5;entryY=1;entryDx=0;entryDy=0;strokeColor=#00CC00;strokeWidth=2;fontStyle=1;" parent="1" source="uO771rqne8T0ETS6UlEL-12" target="uO771rqne8T0ETS6UlEL-8" edge="1">
          <mxGeometry relative="1" as="geometry" />
        </mxCell>
        <mxCell id="uO771rqne8T0ETS6UlEL-12" value="STORE APPLICATION DETAILS IN RID ACCOUNT SECURELY&lt;br&gt;-----------------------&lt;br&gt;&amp;nbsp;WITH ENCRYPTION AND HASHING" style="rounded=0;whiteSpace=wrap;html=1;strokeWidth=2;fontStyle=1;shape=label;boundedLbl=1;backgroundOutline=1;size=15;" parent="1" vertex="1">
          <mxGeometry x="610" y="670" width="150" height="95" as="geometry" />
        </mxCell>
        <mxCell id="uO771rqne8T0ETS6UlEL-26" value="ADMINISTRATOR" style="text;html=1;align=center;verticalAlign=middle;resizable=0;points=[];autosize=1;strokeColor=none;fillColor=none;fontSize=25;fontStyle=1;strokeWidth=2;horizontal=0;" parent="1" vertex="1">
          <mxGeometry x="-220" y="140" width="220" height="40" as="geometry" />
        </mxCell>
        <mxCell id="uO771rqne8T0ETS6UlEL-30" value="&lt;br&gt;&lt;table style=&quot;border-collapse:&lt;br/&gt; collapse;width:310pt&quot; width=&quot;413&quot; cellspacing=&quot;0&quot; cellpadding=&quot;0&quot; border=&quot;0&quot;&gt;&lt;tbody&gt;&lt;tr style=&quot;height:14.4pt&quot; height=&quot;19&quot;&gt;  &lt;td style=&quot;height:14.4pt;width:310pt&quot; width=&quot;413&quot; class=&quot;xl65&quot; height=&quot;19&quot;&gt;PRE-REGISTRATION: APPOINTMENT BOOKING&lt;/td&gt;&lt;/tr&gt;&lt;/tbody&gt;&lt;/table&gt;" style="text;html=1;align=center;verticalAlign=middle;resizable=0;points=[];autosize=1;strokeColor=none;fillColor=none;fontSize=29;fontStyle=1" parent="1" vertex="1">
          <mxGeometry x="619" y="-39.5" width="680" height="80" as="geometry" />
        </mxCell>
        <mxCell id="uO771rqne8T0ETS6UlEL-31" value="OB.1.3" style="text;html=1;align=center;verticalAlign=middle;resizable=0;points=[];autosize=1;strokeColor=none;fillColor=none;fontStyle=1;strokeWidth=2;fontSize=30;" parent="1" vertex="1">
          <mxGeometry x="455" y="-10" width="120" height="50" as="geometry" />
        </mxCell>
        <mxCell id="uO771rqne8T0ETS6UlEL-34" value="D" style="ellipse;whiteSpace=wrap;html=1;aspect=fixed;fontSize=28;fontColor=default;strokeWidth=2;fontStyle=1" parent="1" vertex="1">
          <mxGeometry x="-130" y="-10" width="40" height="40" as="geometry" />
        </mxCell>
        <mxCell id="avhwtHMAC_y1t0GH2TWF-2" style="edgeStyle=orthogonalEdgeStyle;rounded=0;orthogonalLoop=1;jettySize=auto;html=1;exitX=1;exitY=0.5;exitDx=0;exitDy=0;exitPerimeter=0;entryX=0;entryY=0.5;entryDx=0;entryDy=0;strokeColor=#00CC00;strokeWidth=2;fontStyle=1;" parent="1" source="avhwtHMAC_y1t0GH2TWF-1" target="uO771rqne8T0ETS6UlEL-1" edge="1">
          <mxGeometry relative="1" as="geometry" />
        </mxCell>
        <mxCell id="avhwtHMAC_y1t0GH2TWF-1" value="&lt;b&gt;START&lt;br&gt;(OFFLINE)&lt;br&gt;&lt;/b&gt;" style="strokeWidth=2;html=1;shape=mxgraph.flowchart.terminator;whiteSpace=wrap;fillColor=#d5e8d4;strokeColor=#82b366;" parent="1" vertex="1">
          <mxGeometry x="-50" y="70" width="100" height="40" as="geometry" />
        </mxCell>
        <mxCell id="AlD_Mvl5imv0q0pneEnk-198" style="edgeStyle=orthogonalEdgeStyle;rounded=0;orthogonalLoop=1;jettySize=auto;html=1;exitX=0.5;exitY=0;exitDx=0;exitDy=0;exitPerimeter=0;entryX=0.5;entryY=1;entryDx=0;entryDy=0;strokeColor=#00CC00;strokeWidth=2;fontStyle=1;" parent="1" source="avhwtHMAC_y1t0GH2TWF-3" target="AlD_Mvl5imv0q0pneEnk-197" edge="1">
          <mxGeometry relative="1" as="geometry" />
        </mxCell>
        <mxCell id="avhwtHMAC_y1t0GH2TWF-3" value="&lt;span style=&quot;border-color: var(--border-color);&quot;&gt;&lt;b&gt;TERMINATE PROCESS:&lt;/b&gt;&lt;br&gt;WITH REASON&lt;br&gt;&lt;/span&gt;" style="strokeWidth=2;html=1;shape=mxgraph.flowchart.terminator;whiteSpace=wrap;fillColor=#f8cecc;strokeColor=#b85450;" parent="1" vertex="1">
          <mxGeometry x="1020" y="765" width="160" height="40" as="geometry" />
        </mxCell>
        <mxCell id="AlD_Mvl5imv0q0pneEnk-58" value="PUBLIC &lt;br&gt;NETWORK&lt;br style=&quot;border-color: var(--border-color);&quot;&gt;SYSTEMS &lt;br&gt;(CLIENT)" style="text;html=1;align=center;verticalAlign=middle;resizable=0;points=[];autosize=1;strokeColor=none;fillColor=none;fontStyle=1;fontSize=25;strokeWidth=2;horizontal=0;" parent="1" vertex="1">
          <mxGeometry x="-130" y="346.5" width="140" height="140" as="geometry" />
        </mxCell>
        <mxCell id="AlD_Mvl5imv0q0pneEnk-59" value="PRIVATE NETWORK&lt;br&gt;SYSTEMS (SERVER)" style="text;html=1;align=center;verticalAlign=middle;resizable=0;points=[];autosize=1;strokeColor=none;fillColor=none;fontStyle=1;fontSize=25;strokeWidth=2;horizontal=0;" parent="1" vertex="1">
          <mxGeometry x="-130" y="552.75" width="80" height="260" as="geometry" />
        </mxCell>
        <mxCell id="AlD_Mvl5imv0q0pneEnk-60" value="&lt;font style=&quot;font-size: 14px;&quot;&gt;PUBLIC NETWORK&lt;/font&gt;" style="swimlane;whiteSpace=wrap;html=1;" parent="1" vertex="1">
          <mxGeometry x="1330" y="333" width="200" height="167" as="geometry" />
        </mxCell>
        <mxCell id="AlD_Mvl5imv0q0pneEnk-61" value="DNS SERVERS" style="text;html=1;strokeColor=none;fillColor=none;align=center;verticalAlign=middle;whiteSpace=wrap;rounded=0;fontSize=14;" parent="AlD_Mvl5imv0q0pneEnk-60" vertex="1">
          <mxGeometry y="27" width="200" height="28" as="geometry" />
        </mxCell>
        <mxCell id="AlD_Mvl5imv0q0pneEnk-62" value="FTP SERVERS" style="text;html=1;strokeColor=none;fillColor=none;align=center;verticalAlign=middle;whiteSpace=wrap;rounded=0;fontSize=14;" parent="AlD_Mvl5imv0q0pneEnk-60" vertex="1">
          <mxGeometry y="55" width="200" height="28" as="geometry" />
        </mxCell>
        <mxCell id="AlD_Mvl5imv0q0pneEnk-63" value="MAIL SERVERS" style="text;html=1;strokeColor=none;fillColor=none;align=center;verticalAlign=middle;whiteSpace=wrap;rounded=0;fontSize=14;" parent="AlD_Mvl5imv0q0pneEnk-60" vertex="1">
          <mxGeometry y="83" width="200" height="28" as="geometry" />
        </mxCell>
        <mxCell id="AlD_Mvl5imv0q0pneEnk-64" value="PROXY SERVERS" style="text;html=1;strokeColor=none;fillColor=none;align=center;verticalAlign=middle;whiteSpace=wrap;rounded=0;fontSize=14;" parent="AlD_Mvl5imv0q0pneEnk-60" vertex="1">
          <mxGeometry y="111" width="200" height="28" as="geometry" />
        </mxCell>
        <mxCell id="AlD_Mvl5imv0q0pneEnk-65" value="WEB SERVERS" style="text;html=1;strokeColor=none;fillColor=none;align=center;verticalAlign=middle;whiteSpace=wrap;rounded=0;fontSize=14;" parent="AlD_Mvl5imv0q0pneEnk-60" vertex="1">
          <mxGeometry y="139" width="200" height="28" as="geometry" />
        </mxCell>
        <mxCell id="AlD_Mvl5imv0q0pneEnk-66" value="&lt;font style=&quot;font-size: 14px;&quot;&gt;LEGEND&lt;/font&gt;" style="swimlane;whiteSpace=wrap;html=1;" parent="1" vertex="1">
          <mxGeometry x="1330" y="40.5" width="200" height="229.5" as="geometry" />
        </mxCell>
        <mxCell id="AlD_Mvl5imv0q0pneEnk-67" value="KM" style="ellipse;whiteSpace=wrap;html=1;fillColor=#dae8fc;strokeColor=#6c8ebf;gradientColor=#7ea6e0;fontStyle=1" parent="AlD_Mvl5imv0q0pneEnk-66" vertex="1">
          <mxGeometry x="10" y="30" width="30" height="26" as="geometry" />
        </mxCell>
        <mxCell id="AlD_Mvl5imv0q0pneEnk-68" value="IDA" style="ellipse;whiteSpace=wrap;html=1;fillColor=#dae8fc;strokeColor=#6c8ebf;gradientColor=#7ea6e0;fontStyle=1" parent="AlD_Mvl5imv0q0pneEnk-66" vertex="1">
          <mxGeometry x="10" y="131" width="30" height="26" as="geometry" />
        </mxCell>
        <mxCell id="AlD_Mvl5imv0q0pneEnk-69" value="HSM" style="ellipse;whiteSpace=wrap;html=1;fillColor=#dae8fc;strokeColor=#6c8ebf;gradientColor=#7ea6e0;fontStyle=1" parent="AlD_Mvl5imv0q0pneEnk-66" vertex="1">
          <mxGeometry x="10" y="91" width="30" height="26" as="geometry" />
        </mxCell>
        <mxCell id="AlD_Mvl5imv0q0pneEnk-70" value="KR" style="ellipse;whiteSpace=wrap;html=1;fillColor=#dae8fc;strokeColor=#6c8ebf;gradientColor=#7ea6e0;fontStyle=1" parent="AlD_Mvl5imv0q0pneEnk-66" vertex="1">
          <mxGeometry x="10" y="59" width="30" height="26" as="geometry" />
        </mxCell>
        <mxCell id="AlD_Mvl5imv0q0pneEnk-71" value="Key Manager" style="text;html=1;strokeColor=none;fillColor=none;align=center;verticalAlign=middle;whiteSpace=wrap;rounded=0;fontSize=14;" parent="AlD_Mvl5imv0q0pneEnk-66" vertex="1">
          <mxGeometry x="40" y="30" width="160" height="28" as="geometry" />
        </mxCell>
        <mxCell id="AlD_Mvl5imv0q0pneEnk-72" value="Key Revocation" style="text;html=1;strokeColor=none;fillColor=none;align=center;verticalAlign=middle;whiteSpace=wrap;rounded=0;fontSize=14;" parent="AlD_Mvl5imv0q0pneEnk-66" vertex="1">
          <mxGeometry x="40" y="58" width="160" height="28" as="geometry" />
        </mxCell>
        <mxCell id="AlD_Mvl5imv0q0pneEnk-73" value="Hardware Security Module" style="text;html=1;strokeColor=none;fillColor=none;align=center;verticalAlign=middle;whiteSpace=wrap;rounded=0;fontSize=14;" parent="AlD_Mvl5imv0q0pneEnk-66" vertex="1">
          <mxGeometry x="40" y="90" width="160" height="28" as="geometry" />
        </mxCell>
        <mxCell id="AlD_Mvl5imv0q0pneEnk-74" value="ID Authentication (DB)" style="text;html=1;strokeColor=none;fillColor=none;align=center;verticalAlign=middle;whiteSpace=wrap;rounded=0;fontSize=14;" parent="AlD_Mvl5imv0q0pneEnk-66" vertex="1">
          <mxGeometry x="40" y="130" width="160" height="28" as="geometry" />
        </mxCell>
        <mxCell id="AlD_Mvl5imv0q0pneEnk-75" value="AC" style="ellipse;whiteSpace=wrap;html=1;fillColor=#dae8fc;strokeColor=#6c8ebf;gradientColor=#7ea6e0;fontStyle=1" parent="AlD_Mvl5imv0q0pneEnk-66" vertex="1">
          <mxGeometry x="10" y="161" width="30" height="26" as="geometry" />
        </mxCell>
        <mxCell id="AlD_Mvl5imv0q0pneEnk-76" value="Access Control" style="text;html=1;strokeColor=none;fillColor=none;align=center;verticalAlign=middle;whiteSpace=wrap;rounded=0;fontSize=14;" parent="AlD_Mvl5imv0q0pneEnk-66" vertex="1">
          <mxGeometry x="40" y="160" width="160" height="28" as="geometry" />
        </mxCell>
        <mxCell id="AlD_Mvl5imv0q0pneEnk-77" value="Certificate Authority" style="text;html=1;strokeColor=none;fillColor=none;align=center;verticalAlign=middle;whiteSpace=wrap;rounded=0;fontSize=14;" parent="AlD_Mvl5imv0q0pneEnk-66" vertex="1">
          <mxGeometry x="40" y="190" width="160" height="28" as="geometry" />
        </mxCell>
        <mxCell id="AlD_Mvl5imv0q0pneEnk-78" value="CA" style="ellipse;whiteSpace=wrap;html=1;fillColor=#dae8fc;strokeColor=#6c8ebf;gradientColor=#7ea6e0;fontStyle=1" parent="AlD_Mvl5imv0q0pneEnk-66" vertex="1">
          <mxGeometry x="10" y="191" width="30" height="26" as="geometry" />
        </mxCell>
        <mxCell id="AlD_Mvl5imv0q0pneEnk-86" value="" style="group" parent="1" vertex="1" connectable="0">
          <mxGeometry x="608" y="340" width="130" height="78" as="geometry" />
        </mxCell>
        <mxCell id="AlD_Mvl5imv0q0pneEnk-87" value="MASK &amp;amp; ENCRYPT APPLICATION DETAILS&amp;nbsp;" style="rounded=0;whiteSpace=wrap;html=1;fontStyle=1;strokeWidth=2;" parent="AlD_Mvl5imv0q0pneEnk-86" vertex="1">
          <mxGeometry x="26" y="9" width="104" height="60" as="geometry" />
        </mxCell>
        <mxCell id="AlD_Mvl5imv0q0pneEnk-88" value="CA" style="ellipse;whiteSpace=wrap;html=1;fillColor=#dae8fc;strokeColor=#6c8ebf;gradientColor=#7ea6e0;fontStyle=1" parent="AlD_Mvl5imv0q0pneEnk-86" vertex="1">
          <mxGeometry y="52" width="26" height="26" as="geometry" />
        </mxCell>
        <mxCell id="AlD_Mvl5imv0q0pneEnk-89" value="HSM" style="ellipse;whiteSpace=wrap;html=1;fillColor=#dae8fc;strokeColor=#6c8ebf;gradientColor=#7ea6e0;fontStyle=1" parent="AlD_Mvl5imv0q0pneEnk-86" vertex="1">
          <mxGeometry y="26" width="26" height="26" as="geometry" />
        </mxCell>
        <mxCell id="AlD_Mvl5imv0q0pneEnk-90" value="KM" style="ellipse;whiteSpace=wrap;html=1;fillColor=#dae8fc;strokeColor=#6c8ebf;gradientColor=#7ea6e0;fontStyle=1" parent="AlD_Mvl5imv0q0pneEnk-86" vertex="1">
          <mxGeometry width="26" height="26" as="geometry" />
        </mxCell>
        <mxCell id="AlD_Mvl5imv0q0pneEnk-105" value="IDA" style="ellipse;whiteSpace=wrap;html=1;fillColor=#dae8fc;strokeColor=#6c8ebf;gradientColor=#7ea6e0;fontStyle=1" parent="1" vertex="1">
          <mxGeometry x="610" y="643.38" width="30" height="26" as="geometry" />
        </mxCell>
        <mxCell id="AlD_Mvl5imv0q0pneEnk-106" value="KM" style="ellipse;whiteSpace=wrap;html=1;fillColor=#dae8fc;strokeColor=#6c8ebf;gradientColor=#7ea6e0;fontStyle=1" parent="1" vertex="1">
          <mxGeometry x="580" y="670" width="30" height="26" as="geometry" />
        </mxCell>
        <mxCell id="AlD_Mvl5imv0q0pneEnk-107" value="HSM" style="ellipse;whiteSpace=wrap;html=1;fillColor=#dae8fc;strokeColor=#6c8ebf;gradientColor=#7ea6e0;fontStyle=1" parent="1" vertex="1">
          <mxGeometry x="578" y="739" width="30" height="26" as="geometry" />
        </mxCell>
        <mxCell id="AlD_Mvl5imv0q0pneEnk-136" value="AC" style="ellipse;whiteSpace=wrap;html=1;fillColor=#dae8fc;strokeColor=#6c8ebf;gradientColor=#7ea6e0;fontStyle=1" parent="1" vertex="1">
          <mxGeometry x="276.25" y="645" width="30" height="26" as="geometry" />
        </mxCell>
        <mxCell id="AlD_Mvl5imv0q0pneEnk-173" value="ADMIN" style="shape=umlActor;verticalLabelPosition=bottom;verticalAlign=top;html=1;outlineConnect=0;fontStyle=1" parent="1" vertex="1">
          <mxGeometry x="-90" y="120" width="30" height="60" as="geometry" />
        </mxCell>
        <mxCell id="AlD_Mvl5imv0q0pneEnk-183" style="edgeStyle=orthogonalEdgeStyle;rounded=0;orthogonalLoop=1;jettySize=auto;html=1;exitX=0.5;exitY=1;exitDx=0;exitDy=0;strokeColor=#FF2617;strokeWidth=2;fontStyle=1;" parent="1" source="AlD_Mvl5imv0q0pneEnk-180" target="AlD_Mvl5imv0q0pneEnk-181" edge="1">
          <mxGeometry relative="1" as="geometry" />
        </mxCell>
        <mxCell id="9ij2mDgNqmQjfTqantQk-4" style="edgeStyle=orthogonalEdgeStyle;rounded=0;orthogonalLoop=1;jettySize=auto;html=1;exitX=0;exitY=0.5;exitDx=0;exitDy=0;entryX=0.5;entryY=0;entryDx=0;entryDy=0;endArrow=classic;strokeColor=#00CC00;strokeWidth=2;fontStyle=1;startArrow=none;startFill=0;endFill=1;" parent="1" source="AlD_Mvl5imv0q0pneEnk-180" target="AlD_Mvl5imv0q0pneEnk-185" edge="1">
          <mxGeometry relative="1" as="geometry">
            <Array as="points">
              <mxPoint x="860" y="394" />
              <mxPoint x="830" y="394" />
            </Array>
          </mxGeometry>
        </mxCell>
        <mxCell id="AlD_Mvl5imv0q0pneEnk-180" value="IF &lt;br&gt;FILE SIZE AND &lt;br&gt;FORMAT &lt;br&gt;ACCEPTED" style="rounded=0;whiteSpace=wrap;html=1;strokeWidth=2;fontStyle=1;shape=rhombus;perimeter=rhombusPerimeter;" parent="1" vertex="1">
          <mxGeometry x="880" y="347" width="140" height="93" as="geometry" />
        </mxCell>
        <mxCell id="DohdZiZ-uKKKz1XEYaPd-2" style="edgeStyle=orthogonalEdgeStyle;rounded=0;orthogonalLoop=1;jettySize=auto;html=1;exitX=0.5;exitY=1;exitDx=0;exitDy=0;entryX=0.5;entryY=0;entryDx=0;entryDy=0;strokeColor=#FF2617;strokeWidth=2;fontStyle=1;" parent="1" source="AlD_Mvl5imv0q0pneEnk-181" target="AlD_Mvl5imv0q0pneEnk-182" edge="1">
          <mxGeometry relative="1" as="geometry" />
        </mxCell>
        <mxCell id="AlD_Mvl5imv0q0pneEnk-181" value="EXCEPTION AND ERROR HANDLING (COUNTER)" style="rounded=0;whiteSpace=wrap;html=1;fontStyle=1;strokeWidth=2;fontSize=11;shape=label;boundedLbl=1;backgroundOutline=1;size=9.769240159254764;" parent="1" vertex="1">
          <mxGeometry x="881" y="580" width="139" height="30" as="geometry" />
        </mxCell>
        <mxCell id="AlD_Mvl5imv0q0pneEnk-191" style="edgeStyle=orthogonalEdgeStyle;rounded=0;orthogonalLoop=1;jettySize=auto;html=1;exitX=1;exitY=0.5;exitDx=0;exitDy=0;entryX=1;entryY=0.25;entryDx=0;entryDy=0;strokeColor=#00CC00;strokeWidth=2;fontStyle=1;" parent="1" source="AlD_Mvl5imv0q0pneEnk-182" target="uO771rqne8T0ETS6UlEL-2" edge="1">
          <mxGeometry relative="1" as="geometry">
            <Array as="points">
              <mxPoint x="1030" y="673" />
              <mxPoint x="1030" y="75" />
            </Array>
          </mxGeometry>
        </mxCell>
        <mxCell id="AlD_Mvl5imv0q0pneEnk-182" value="IF RETRY &lt;br&gt;COUNT &amp;lt;=3" style="rhombus;whiteSpace=wrap;html=1;fontStyle=1;strokeWidth=2;fontSize=11;" parent="1" vertex="1">
          <mxGeometry x="895" y="628" width="110" height="90" as="geometry" />
        </mxCell>
        <mxCell id="AlD_Mvl5imv0q0pneEnk-184" value="" style="group" parent="1" vertex="1" connectable="0">
          <mxGeometry x="760" y="400" width="150" height="80" as="geometry" />
        </mxCell>
        <mxCell id="AlD_Mvl5imv0q0pneEnk-185" value="MASK &amp;amp; ENCRYPT SCAN FILE&amp;nbsp;" style="rounded=0;whiteSpace=wrap;html=1;fontStyle=1;strokeWidth=2;" parent="AlD_Mvl5imv0q0pneEnk-184" vertex="1">
          <mxGeometry x="30" y="10" width="80" height="63" as="geometry" />
        </mxCell>
        <mxCell id="AlD_Mvl5imv0q0pneEnk-186" value="CA" style="ellipse;whiteSpace=wrap;html=1;fillColor=#dae8fc;strokeColor=#6c8ebf;gradientColor=#7ea6e0;fontStyle=1" parent="AlD_Mvl5imv0q0pneEnk-184" vertex="1">
          <mxGeometry y="52" width="30" height="26" as="geometry" />
        </mxCell>
        <mxCell id="AlD_Mvl5imv0q0pneEnk-187" value="HSM" style="ellipse;whiteSpace=wrap;html=1;fillColor=#dae8fc;strokeColor=#6c8ebf;gradientColor=#7ea6e0;fontStyle=1" parent="AlD_Mvl5imv0q0pneEnk-184" vertex="1">
          <mxGeometry y="26" width="30" height="26" as="geometry" />
        </mxCell>
        <mxCell id="AlD_Mvl5imv0q0pneEnk-188" value="KM" style="ellipse;whiteSpace=wrap;html=1;fillColor=#dae8fc;strokeColor=#6c8ebf;gradientColor=#7ea6e0;fontStyle=1" parent="AlD_Mvl5imv0q0pneEnk-184" vertex="1">
          <mxGeometry width="30" height="26" as="geometry" />
        </mxCell>
        <mxCell id="AlD_Mvl5imv0q0pneEnk-190" style="edgeStyle=orthogonalEdgeStyle;rounded=0;orthogonalLoop=1;jettySize=auto;html=1;exitX=0.5;exitY=1;exitDx=0;exitDy=0;entryX=0;entryY=0.5;entryDx=0;entryDy=0;entryPerimeter=0;strokeColor=#FF2617;strokeWidth=2;fontStyle=1;jumpStyle=arc;jumpSize=11;" parent="1" source="AlD_Mvl5imv0q0pneEnk-182" target="avhwtHMAC_y1t0GH2TWF-3" edge="1">
          <mxGeometry relative="1" as="geometry" />
        </mxCell>
        <mxCell id="AlD_Mvl5imv0q0pneEnk-203" style="edgeStyle=orthogonalEdgeStyle;rounded=0;orthogonalLoop=1;jettySize=auto;html=1;exitX=1;exitY=0.5;exitDx=0;exitDy=0;strokeColor=#00CC00;strokeWidth=2;fontStyle=1;jumpStyle=arc;jumpSize=11;" parent="1" source="AlD_Mvl5imv0q0pneEnk-197" target="AlD_Mvl5imv0q0pneEnk-200" edge="1">
          <mxGeometry relative="1" as="geometry" />
        </mxCell>
        <mxCell id="AlD_Mvl5imv0q0pneEnk-197" value="PRINTS ACKNOWLEDG-EMENT&amp;nbsp;&lt;br&gt;WITH REJECTED APPLICATION" style="rounded=0;whiteSpace=wrap;html=1;strokeWidth=2;fontStyle=1" parent="1" vertex="1">
          <mxGeometry x="1050" y="160" width="100" height="94.5" as="geometry" />
        </mxCell>
        <mxCell id="AlD_Mvl5imv0q0pneEnk-199" value="" style="edgeStyle=orthogonalEdgeStyle;rounded=0;orthogonalLoop=1;jettySize=auto;html=1;strokeColor=#00CC00;fontStyle=1;strokeWidth=2;" parent="1" source="AlD_Mvl5imv0q0pneEnk-200" target="AlD_Mvl5imv0q0pneEnk-201" edge="1">
          <mxGeometry relative="1" as="geometry" />
        </mxCell>
        <mxCell id="AlD_Mvl5imv0q0pneEnk-200" value="LOGS THE PROCESS AND STATUS" style="rounded=0;whiteSpace=wrap;html=1;fontStyle=1;strokeWidth=2;shape=label;boundedLbl=1;backgroundOutline=1;size=15;" parent="1" vertex="1">
          <mxGeometry x="1180" y="640" width="100" height="60" as="geometry" />
        </mxCell>
        <mxCell id="AlD_Mvl5imv0q0pneEnk-201" value="&lt;b&gt;END&lt;/b&gt;" style="strokeWidth=2;html=1;shape=mxgraph.flowchart.terminator;whiteSpace=wrap;fillColor=#f8cecc;strokeColor=#b85450;" parent="1" vertex="1">
          <mxGeometry x="1180" y="745" width="100" height="40" as="geometry" />
        </mxCell>
        <mxCell id="AlD_Mvl5imv0q0pneEnk-202" value="IDA" style="ellipse;whiteSpace=wrap;html=1;fillColor=#dae8fc;strokeColor=#6c8ebf;gradientColor=#7ea6e0;fontStyle=1" parent="1" vertex="1">
          <mxGeometry x="1180" y="614" width="30" height="26" as="geometry" />
        </mxCell>
        <mxCell id="AlD_Mvl5imv0q0pneEnk-168" value="" style="group" parent="1" vertex="1" connectable="0">
          <mxGeometry x="-131" y="290" width="1421" height="60" as="geometry" />
        </mxCell>
        <mxCell id="AlD_Mvl5imv0q0pneEnk-169" value="" style="group" parent="AlD_Mvl5imv0q0pneEnk-168" vertex="1" connectable="0">
          <mxGeometry y="2" width="1421" height="40" as="geometry" />
        </mxCell>
        <mxCell id="AlD_Mvl5imv0q0pneEnk-170" value="&lt;b&gt;SINGLE/ DUAL FIREWALL&lt;/b&gt;" style="shape=label;whiteSpace=wrap;html=1;boundedLbl=1;backgroundOutline=1;darkOpacity=0.05;darkOpacity2=0.1;fillColor=#e51400;fontColor=#ffffff;strokeColor=#B20000;rounded=0;" parent="AlD_Mvl5imv0q0pneEnk-169" vertex="1">
          <mxGeometry width="1421" height="20" as="geometry" />
        </mxCell>
        <mxCell id="AlD_Mvl5imv0q0pneEnk-171" value="&lt;b&gt;IDS, IPS, HONEYPOT&lt;/b&gt;" style="shape=label;whiteSpace=wrap;html=1;boundedLbl=1;backgroundOutline=1;darkOpacity=0.05;darkOpacity2=0.1;fillColor=#f0a30a;strokeColor=#BD7000;rounded=0;fontColor=#000000;" parent="AlD_Mvl5imv0q0pneEnk-169" vertex="1">
          <mxGeometry y="20" width="1421" height="20" as="geometry" />
        </mxCell>
        <mxCell id="AlD_Mvl5imv0q0pneEnk-172" value="API/ HTTPS (SSL/TLS)" style="shape=label;whiteSpace=wrap;html=1;boundedLbl=1;backgroundOutline=1;darkOpacity=0.05;darkOpacity2=0.1;fillColor=#f8cecc;strokeColor=#b85450;rounded=0;fontStyle=1" parent="AlD_Mvl5imv0q0pneEnk-168" vertex="1">
          <mxGeometry y="-18" width="1421" height="20" as="geometry" />
        </mxCell>
        <mxCell id="AlD_Mvl5imv0q0pneEnk-157" value="" style="group" parent="1" vertex="1" connectable="0">
          <mxGeometry x="-130" y="500" width="1421" height="72" as="geometry" />
        </mxCell>
        <mxCell id="AlD_Mvl5imv0q0pneEnk-158" value="" style="group" parent="AlD_Mvl5imv0q0pneEnk-157" vertex="1" connectable="0">
          <mxGeometry y="2" width="1421" height="40" as="geometry" />
        </mxCell>
        <mxCell id="AlD_Mvl5imv0q0pneEnk-159" value="&lt;b&gt;SINGLE/ DUAL FIREWALL&lt;/b&gt;" style="shape=label;whiteSpace=wrap;html=1;boundedLbl=1;backgroundOutline=1;darkOpacity=0.05;darkOpacity2=0.1;fillColor=#e51400;fontColor=#ffffff;strokeColor=#B20000;rounded=0;" parent="AlD_Mvl5imv0q0pneEnk-158" vertex="1">
          <mxGeometry width="1421" height="20" as="geometry" />
        </mxCell>
        <mxCell id="AlD_Mvl5imv0q0pneEnk-160" value="&lt;b&gt;IDS, IPS, HONEYPOT&lt;/b&gt;" style="shape=label;whiteSpace=wrap;html=1;boundedLbl=1;backgroundOutline=1;darkOpacity=0.05;darkOpacity2=0.1;fillColor=#f0a30a;strokeColor=#BD7000;rounded=0;fontColor=#000000;" parent="AlD_Mvl5imv0q0pneEnk-158" vertex="1">
          <mxGeometry y="20" width="1421" height="20" as="geometry" />
        </mxCell>
        <mxCell id="AlD_Mvl5imv0q0pneEnk-161" value="API/ HTTPS (SSL/TLS)" style="shape=label;whiteSpace=wrap;html=1;boundedLbl=1;backgroundOutline=1;darkOpacity=0.05;darkOpacity2=0.1;fillColor=#f8cecc;strokeColor=#b85450;rounded=0;fontStyle=1" parent="AlD_Mvl5imv0q0pneEnk-157" vertex="1">
          <mxGeometry y="-18" width="1421" height="20" as="geometry" />
        </mxCell>
        <mxCell id="AlD_Mvl5imv0q0pneEnk-192" value="NOTIFICATION GENERATOR" style="rounded=0;whiteSpace=wrap;html=1;fontStyle=1;strokeWidth=2;fontSize=11;fillColor=default;strokeColor=default;" parent="AlD_Mvl5imv0q0pneEnk-157" vertex="1">
          <mxGeometry x="1150" y="50" width="170" height="22" as="geometry" />
        </mxCell>
        <mxCell id="9ij2mDgNqmQjfTqantQk-2" value="IDA" style="ellipse;whiteSpace=wrap;html=1;fillColor=#dae8fc;strokeColor=#6c8ebf;gradientColor=#7ea6e0;fontStyle=1" parent="1" vertex="1">
          <mxGeometry x="422" y="558" width="30" height="26" as="geometry" />
        </mxCell>
        <mxCell id="w7pqBY1xLjnpFd1RdofT-2" value="&lt;div style=&quot;font-size: 18px;&quot;&gt;&lt;font style=&quot;font-size: 18px;&quot;&gt;&lt;b style=&quot;font-size: 18px;&quot;&gt;Purpose:&lt;/b&gt;&lt;/font&gt;&lt;/div&gt;&lt;div style=&quot;font-size: 18px;&quot;&gt;&lt;div&gt;The SOP outlines the process for pre-registration and appointment booking in an offline setting.&lt;/div&gt;&lt;div&gt;It includes steps like receiving signed forms, digitizing application details, evaluating the application for completeness, and dealing with exceptions and errors.&lt;/div&gt;&lt;/div&gt;" style="whiteSpace=wrap;html=1;align=left;rounded=0;strokeWidth=2;verticalAlign=middle;fontFamily=Helvetica;fontSize=18;fontStyle=0;" vertex="1" parent="1">
          <mxGeometry x="-170" y="-90" width="1500" height="70" as="geometry" />
        </mxCell>
      </root>
    </mxGraphModel>
  </diagram>
</mxfile>
